<svg xmlns="http://www.w3.org/2000/svg" viewBox="140 40 700 1130"><g fill="#FFFFFF" stroke="#FFFFFF" stroke-width="14" stroke-linejoin="round" stroke-linecap="round" paint-order="stroke"><path fill="#424D63" stroke="none" d="M238.863 724.489C236.63 721.258 232.665 717.233 230.434 714.554C215.048 696.082 207.34 641.158 210.542 618.276C213.97 593.778 226.738 556.246 234.366 531.851C236.537 524.908 238.788 517.991 240.777 510.797C242.179 505.728 243.953 496.905 245.531 492.59C248.717 483.875 252.458 474.948 255.797 466.185C260.367 454.192 261.153 444.052 264.043 432.053C267.001 419.773 271.453 406.359 275.537 394.46C284.138 369.407 297.381 349.175 311.657 327.214C318.19 317.165 324.13 306.577 331.729 297.141C339.781 287.144 349.39 277.223 358.9 268.599C371.298 257.354 386.093 247.396 399.259 236.885C411.479 227.128 425.808 212.471 438.808 204.762C451.261 197.378 471.752 194.052 486.001 190.506C508.221 184.975 525.897 174.658 545.413 163.092C550.764 159.92 557.285 156.329 562.428 152.893C568.108 149.098 569.3 139.872 574.092 134.098C580.562 126.301 588.504 120.516 595.267 113.116C608.013 99.1712 621.951 77.3639 636.603 66.0757C654.592 52.2172 683.429 47.417 705.42 51.0515C729.794 55.0799 761.303 67.8731 775.707 88.9562C783.506 100.372 795.128 119.8 798.61 133.559C799.904 138.669 799.904 148.5 800.989 153.371C802.457 159.966 805.552 161.363 803.963 169.439C802.083 178.998 798.308 184.48 790.227 189.739C779.15 196.946 780.981 205.167 779.105 216.657C782.819 218.925 787.547 222.693 788.421 227.113C792.775 249.133 769.263 270.848 748.286 258.885C744.053 273.68 743.575 275.004 727.665 276.14L725.517 283.278C726.594 283.551 727.665 283.845 728.73 284.159C739.894 287.494 745.363 300.896 751.44 309.884C758.357 320.113 765.016 330.729 771.207 341.383C782.715 361.189 784.37 384.725 776.399 406.128C773.13 415 767.029 424.533 764.145 433.384C756.901 455.619 749.579 477.667 741.012 499.441C738.719 505.27 735.945 511.035 734.166 517.041L733.924 517.875C749.173 530.25 754.646 541.325 766.779 553.159C785.929 571.838 811.084 575.089 818.656 606.374C819.361 609.284 821.708 616.199 821.963 619.52C823.561 640.334 828.722 664.13 826.335 684.738C825.781 689.516 819.273 698.48 817.728 703.294C816.212 708.021 815.597 714.797 813.274 718.735C808.726 726.445 799.441 729.242 791.551 731.564L790.792 731.88C779.514 736.494 773.355 734.289 765.908 743.196C745.575 767.889 728.66 792.945 707.717 816.751C701.377 823.957 694.192 830.016 687.145 836.52C679.752 843.449 672.419 850.443 665.148 857.5C644.088 877.85 624.523 900.781 608.859 925.546C603.923 933.361 592.699 948.537 594.85 958.129C600.446 983.044 602.372 1016.83 624.966 1033.12C635.781 1040.92 644.017 1049.68 645.711 1063.34C646.921 1073.1 640.69 1092.86 628.62 1093.19C615.423 1093.55 607.152 1088.18 596.336 1081.75C592.201 1079.45 585.505 1077.36 580.251 1074.51C577.691 1073.55 575.011 1072.48 572.432 1071.61C574.395 1074.11 577.74 1078.1 579.45 1080.59C587.159 1091.15 598.646 1108.22 588.347 1121.09C584.634 1125.72 563.239 1127.69 556.89 1127.97C537.599 1128.84 521.31 1123.15 504.797 1113.99C495.754 1108.97 485.826 1106.95 479.187 1097.72C471.168 1087.08 467.504 1077.44 458.447 1067.2C443.552 1050.34 409.76 1036.32 409.876 1011.15C409.973 990.213 428.709 971.841 437.88 954.095C447.36 935.752 450.648 917.02 454.98 897.138C458.232 880.814 465.597 861.298 467.749 845.136C472.945 806.11 473.381 785.436 503.353 756.057C503.832 753.709 504.426 751.724 503.643 749.546C501.898 747.871 502.341 748.397 499.44 747.948C481.97 749.495 464.975 753.596 447.347 755.004C409.414 758.033 372.892 753.286 335.329 749.66C311.115 747.323 288.722 749.84 264.958 739.963C255.384 735.984 251.772 734.016 242.881 728.393C231.834 733.684 223.923 736.449 212.861 739.942C201.764 743.446 194.854 765.171 190.495 774.741C183.019 791.156 180.551 806.185 183.164 824.235C184.432 836.359 185.062 851.094 184.42 863.327C183.594 879.054 179.915 895.424 178.909 911.224C178.472 925.977 178.633 939.635 177.016 954.393C175.402 969.133 168.797 983.098 168.006 997.465C167.048 1014.84 182.403 1029.99 177.226 1048.31C175.658 1055.96 170.725 1062.02 168.127 1069.27C166.718 1073.2 167.021 1076.92 167.045 1081.02C156.69 1094.93 157.293 1107.19 157.548 1123.96C162.827 1126.22 174.11 1128.33 180.347 1129.53C203.787 1134.03 228.274 1137.13 251.98 1139.94C265.513 1141.54 280.162 1141.79 293.835 1143.44L364.848 1152.47C377.138 1153.99 395.373 1156.79 407.324 1156.63C427.901 1156.59 449.481 1151.41 469.926 1150.74C504.069 1149.62 535.852 1149.58 569.526 1142.67C598.233 1136.77 636.644 1134.84 658.641 1113.02C655.814 1100.83 650.603 1090.11 646.556 1078.45C646.296 1077.7 647.095 1077.13 647.607 1076.51C649.746 1075.83 648.732 1075.81 650.75 1076.37C656.149 1081.14 662.964 1107.01 664.183 1114.61C645.316 1138.74 602.691 1141.37 574.71 1147.45C540.279 1154.93 507.284 1154.7 472.441 1156.49C449.316 1157.68 425.731 1162.8 402.512 1162.04C384.453 1161.46 366.307 1158.51 348.444 1156.08L290.163 1148.73C257.819 1144.69 225.383 1143.93 193.38 1137.19C184.582 1135.83 175.199 1134.26 166.512 1132.79C151.766 1130.3 151.49 1126.29 152.394 1112.19C152.881 1104.61 153.316 1096.09 155.58 1088.6C156.587 1085.26 159.873 1082.06 160.925 1078.67C161.936 1075.96 162.528 1066.63 163.879 1064.64C179.686 1041.3 170.566 1031.03 163.569 1007.56C159.249 993.069 169.477 970.062 171.602 954.798C173.889 938.371 172.874 918.956 174.116 902.178C175.174 889.018 178.231 875.87 179.186 862.673C181.296 838.867 173.413 813.842 179.248 790.391C181.041 783.184 184.3 775.99 187.003 769.153C191.888 756.795 197.67 741.626 210.243 735.281C220.969 731.303 227.651 730.794 238.863 724.489Z"/><path d="M238.863 724.489C236.63 721.258 232.665 717.233 230.434 714.554C215.048 696.082 207.34 641.158 210.542 618.276C213.97 593.778 226.738 556.246 234.366 531.851C236.537 524.908 238.788 517.991 240.777 510.797C242.179 505.728 243.953 496.905 245.531 492.59C248.717 483.875 252.458 474.948 255.797 466.185C260.367 454.192 261.153 444.052 264.043 432.053C267.001 419.773 271.453 406.359 275.537 394.46C284.138 369.407 297.381 349.175 311.657 327.214C318.19 317.165 324.13 306.577 331.729 297.141C339.781 287.144 349.39 277.223 358.9 268.599C371.298 257.354 386.093 247.396 399.259 236.885C411.479 227.128 425.808 212.471 438.808 204.762C451.261 197.378 471.752 194.052 486.001 190.506C508.221 184.975 525.897 174.658 545.413 163.092C550.764 159.92 557.285 156.329 562.428 152.893C568.108 149.098 569.3 139.872 574.092 134.098C580.562 126.301 588.504 120.516 595.267 113.116C608.013 99.1712 621.951 77.3639 636.603 66.0757C654.592 52.2172 683.429 47.417 705.42 51.0515C729.794 55.0799 761.303 67.8731 775.707 88.9562C783.506 100.372 795.128 119.8 798.61 133.559C799.904 138.669 799.904 148.5 800.989 153.371C802.457 159.966 805.552 161.363 803.963 169.439C802.083 178.998 798.308 184.48 790.227 189.739C779.15 196.946 780.981 205.167 779.105 216.657C782.819 218.925 787.547 222.693 788.421 227.113C792.775 249.133 769.263 270.848 748.286 258.885C744.053 273.68 743.575 275.004 727.665 276.14L725.517 283.278C726.594 283.551 727.665 283.845 728.73 284.159C739.894 287.494 745.363 300.896 751.44 309.884C758.357 320.113 765.016 330.729 771.207 341.383C782.715 361.189 784.37 384.725 776.399 406.128C773.13 415 767.029 424.533 764.145 433.384C756.901 455.619 749.579 477.667 741.012 499.441C738.719 505.27 735.945 511.035 734.166 517.041L733.924 517.875C749.173 530.25 754.646 541.325 766.779 553.159C785.929 571.838 811.084 575.089 818.656 606.374C819.361 609.284 821.708 616.199 821.963 619.52C823.561 640.334 828.722 664.13 826.335 684.738C825.781 689.516 819.273 698.48 817.728 703.294C816.212 708.021 815.597 714.797 813.274 718.735C808.726 726.445 799.441 729.242 791.551 731.564L790.792 731.88C779.514 736.494 773.355 734.289 765.908 743.196C765.163 741.443 764.566 739.631 764.123 737.779L764.476 736.826C762.451 736.636 759.475 737.836 757.415 738.496C751.521 741.276 735.24 749.159 730.019 738.139C728.012 733.904 724.422 727.042 723.144 723.534C722.407 721.566 722.054 719.474 722.106 717.372C722.582 701.452 753.967 695.064 754.742 675.338L754.767 674.523C754.682 668.512 754.546 662.501 754.358 656.492L750.719 662.255C746.34 670.628 739.168 685.906 729.618 686.611C699.873 688.808 719.69 658.153 723.165 646.603C727.54 632.067 728.451 625.309 736.961 614.822C721.082 602.78 709.778 597.532 690.715 591.947C692.185 590.78 694.339 589.624 694.464 587.733C693.32 587.153 690.751 586.334 689.426 585.871L693.491 579.97C691.085 579.329 690.494 579.023 688.221 577.919C696.935 565.611 712.941 545.259 719.851 533.114C737.276 502.484 747.874 462.561 760.126 429.452C764.228 418.364 770.56 408.374 773.916 397.013C779.488 378.15 775.232 358.81 765.764 341.978C760.158 332.013 752.306 321.373 746.215 311.462C743.216 306.965 738.72 299.194 735.582 295.309C733.846 293.161 714.083 280.919 712.364 280.68C701.238 279.13 688.088 284.845 676.707 285.146C669.381 285.34 662.349 282.903 655.205 284.189C651.282 285.004 645.616 290.215 642.145 292.47C635.593 296.727 606.948 303.692 606.32 312.871C606.226 314.336 606.792 315.766 607.862 316.771C610.489 319.234 615.85 318.569 619.328 318.454C621.836 316.885 623.91 315.079 626.65 313.63C633.282 310.123 640.017 311.192 646.767 310.176C651.903 308.999 655.475 306.712 660.929 307.058C667.881 307.498 674.549 309.151 681.55 309.272C684.927 306.731 685.896 304.02 690.332 302.465L691.269 303.004C691.439 305.425 688.972 310.231 687.249 311.579C680.019 317.238 664.054 312.309 655.114 312.175L654.175 312.167C664.324 315.924 676.672 321.811 686.465 316.734C688.647 315.603 694.631 313.094 696.876 312.96L698.015 314.022C698.656 320.817 684.892 323.747 679.52 323.9C666.378 324.275 655.433 316.615 642.298 315.944C637.713 315.709 630.754 315.259 627.877 319.683C618.319 334.376 645.131 337.757 653.582 341.15C664.838 345.689 675.048 346.861 682.441 356.883C690.198 368.527 713.535 365.484 716.036 381.251C717.579 390.977 705.804 408.688 700.816 417.081C693.672 428.178 686.924 441.285 677.793 450.893C668.634 460.53 659.21 467.324 650.928 478.086L646.321 475.053C658.119 460.223 679.699 445.158 686.204 429.535C683.062 416.429 677.588 403.765 676.674 390.19C676.019 380.452 677.412 370.709 678.567 361.057C675.887 357.594 674.072 356.07 670.719 353.233C659.841 360.508 651.55 361.699 638.278 363.065C633.978 363.507 630.726 360.398 626.73 359.801C624.612 359.441 621.229 360.178 619.202 359.572C615.014 358.319 612.158 354.442 612.443 350.136C612.957 342.371 616.868 338.452 622.1 333.52C621.243 329.52 620.994 327.709 620.702 323.626C613.01 323.755 597.149 323.987 601.722 309.329C604.684 299.835 626.19 293.583 635.296 289.774C634.883 288.928 633.297 285.856 632.746 285.424C621.593 276.685 599.274 299.293 590.704 298.77C588.988 297.665 589.586 298.393 588.822 296.527C591.685 290.588 619.626 279.044 626.809 277.592C615.351 263.555 605.283 249.694 605.845 230.566C605.938 227.395 606.016 223.203 608.266 221.058L609.589 221.151C610.005 221.559 610.421 221.968 610.838 222.376C612.151 231.057 610.172 238.072 613.45 246.723C619.823 263.543 631.579 272.894 641.033 286.591C659.036 273.176 659.8 280.74 679.249 279.304C695.615 278.095 704.565 271.989 721.632 278.6C722.651 276.093 723.617 273.116 724.528 270.531C728.24 270.613 733.864 271.353 737.309 269.789C742.003 267.657 747.598 236.832 749.685 230.305C747.23 229.277 744.053 228.289 741.488 227.412C737.712 232.16 733.691 237.974 728.434 241.099C716.165 248.392 699.239 247.197 692.526 233.039C688.418 224.376 690.524 217.691 693.628 209.269C682.199 199.528 670.957 189.57 659.907 179.401C652.636 179.585 648.535 180.482 643.761 174.293C643.316 170.828 643.804 164.204 643.571 159.795C638.167 137.809 618.092 138.817 609.263 157.61C604.637 167.455 604.801 178.397 606.418 188.935C607.022 192.869 607.31 200.54 611.497 202.714C614.881 204.47 620.891 202.091 624.205 203.589L624.632 204.693C622.924 208.501 620.019 208.473 616.184 209.532C609.021 207.52 608.156 207.178 603.975 201.409C599.373 195.057 602.386 174.404 597.517 173.234C589.663 171.347 577.403 185.359 569.533 171.706C567.141 167.557 566.623 162.225 565.815 157.149C543.881 170.055 519.109 185.988 495.067 193.647C479.128 198.725 460.343 199.54 444.857 207.662C430.286 215.304 417.258 229.795 404.372 239.741C384.648 254.965 366.859 267.431 349.306 285.145C336.049 297.637 327.801 312.752 317.883 327.587C297.197 358.526 279.798 389.53 271.321 426.208C268.656 437.739 266.054 449.816 263.221 461.23C260.699 471.392 253.787 483.456 250.891 493.824C245.452 517.388 236.702 539.469 230.316 562.578C225.947 578.39 217.442 601.723 216.406 617.779C214.635 645.22 217.525 681.068 231.089 705.346C252.739 743 295.88 742.322 333.73 744.542C366.133 746.442 400.885 752.02 433.714 750.486C453 749.874 473.216 745.955 492.415 743.664C498.612 742.924 517.112 741.585 521.131 738.917C526.657 735.249 535.693 724.267 543.846 723.109L545.116 723.627C545.681 725.614 545.685 724.658 545.186 726.6C541.915 729.925 538.314 731.057 534.784 734.399C517.887 750.594 496.771 766.313 485.79 787.433C475.888 806.48 476.227 830.831 472.018 851.423C468.271 869.754 462.481 888.356 458.486 906.716C457.355 911.916 455.975 917.06 454.958 922.291C452.324 934.794 447.631 947.431 441.47 958.636C437.682 965.526 433.076 971.99 428.914 978.65C415.459 998.082 406.97 1016.09 428.031 1034.46C440.31 1045.31 453.476 1053.71 464.848 1065.69C472.632 1073.9 475.122 1084.38 482.179 1092.93C492.086 1104.32 507.952 1108.62 520.935 1116.01C524.83 1118.23 534.658 1120.21 539.498 1121.16C549.057 1123.02 578.434 1123.77 585.19 1115.8C591.653 1108.17 581.652 1091.91 576.354 1084.77C577.62 1082.51 577.663 1082.48 579.45 1080.59C587.159 1091.15 598.646 1108.22 588.347 1121.09C584.634 1125.72 563.239 1127.69 556.89 1127.97C537.599 1128.84 521.31 1123.15 504.797 1113.99C495.754 1108.97 485.826 1106.95 479.187 1097.72C471.168 1087.08 467.504 1077.44 458.447 1067.2C443.552 1050.34 409.76 1036.32 409.876 1011.15C409.973 990.213 428.709 971.841 437.88 954.095C447.36 935.752 450.648 917.02 454.98 897.138C458.232 880.814 465.597 861.298 467.749 845.136C472.945 806.11 473.381 785.436 503.353 756.057C503.832 753.709 504.426 751.724 503.643 749.546C501.898 747.871 502.341 748.397 499.44 747.948C481.97 749.495 464.975 753.596 447.347 755.004C409.414 758.033 372.892 753.286 335.329 749.66C311.115 747.323 288.722 749.84 264.958 739.963C255.384 735.984 251.772 734.016 242.881 728.393C231.834 733.684 223.923 736.449 212.861 739.942C201.764 743.446 194.854 765.171 190.495 774.741C183.019 791.156 180.551 806.185 183.164 824.235C184.432 836.359 185.062 851.094 184.42 863.327C183.594 879.054 179.915 895.424 178.909 911.224C178.472 925.977 178.633 939.635 177.016 954.393C175.402 969.133 168.797 983.098 168.006 997.465C167.048 1014.84 182.403 1029.99 177.226 1048.31C175.658 1055.96 170.725 1062.02 168.127 1069.27C166.718 1073.2 167.021 1076.92 167.045 1081.02C156.69 1094.93 157.293 1107.19 157.548 1123.96C162.827 1126.22 174.11 1128.33 180.347 1129.53C203.787 1134.03 228.274 1137.13 251.98 1139.94C265.513 1141.54 280.162 1141.79 293.835 1143.44L364.848 1152.47C377.138 1153.99 395.373 1156.79 407.324 1156.63C427.901 1156.59 449.481 1151.41 469.926 1150.74C504.069 1149.62 535.852 1149.58 569.526 1142.67C598.233 1136.77 636.644 1134.84 658.641 1113.02C655.814 1100.83 650.603 1090.11 646.556 1078.45C646.296 1077.7 647.095 1077.13 647.607 1076.51C649.746 1075.83 648.732 1075.81 650.75 1076.37C656.149 1081.14 662.964 1107.01 664.183 1114.61C645.316 1138.74 602.691 1141.37 574.71 1147.45C540.279 1154.93 507.284 1154.7 472.441 1156.49C449.316 1157.68 425.731 1162.8 402.512 1162.04C384.453 1161.46 366.307 1158.51 348.444 1156.08L290.163 1148.73C257.819 1144.69 225.383 1143.93 193.38 1137.19C184.582 1135.83 175.199 1134.26 166.512 1132.79C151.766 1130.3 151.49 1126.29 152.394 1112.19C152.881 1104.61 153.316 1096.09 155.58 1088.6C156.587 1085.26 159.873 1082.06 160.925 1078.67C161.936 1075.96 162.528 1066.63 163.879 1064.64C179.686 1041.3 170.566 1031.03 163.569 1007.56C159.249 993.069 169.477 970.062 171.602 954.798C173.889 938.371 172.874 918.956 174.116 902.178C175.174 889.018 178.231 875.87 179.186 862.673C181.296 838.867 173.413 813.842 179.248 790.391C181.041 783.184 184.3 775.99 187.003 769.153C191.888 756.795 197.67 741.626 210.243 735.281C220.969 731.303 227.651 730.794 238.863 724.489Z"/><path fill="#424D63" stroke="none" d="M600.931 168.308C584.591 168.049 571.112 182.384 571.372 155.49C571.549 137.143 589.206 128.578 599.572 116.464C611.768 102.21 622.714 86.6209 636.074 73.3098C648.869 61.0492 676.652 53.8716 694.346 55.158C718.071 56.8829 751.427 68.3243 767.282 86.7441C775.934 96.7954 790.478 122.088 794.121 135.472C794.881 138.264 795.029 147.29 795.463 150.928C796.225 157.325 797.919 160.252 799.802 165.919C797.846 173.37 795.222 179.24 790.094 185.065C779.077 178.734 776.227 180.222 764.887 176.379C762.147 175.45 756.243 170.499 752.28 169.287C745.63 167.254 738.854 169.065 732.495 167.528C723.469 165.347 716.085 156.503 705.773 158.556C701.894 159.329 696.804 164.967 693.668 165.934C688.637 167.486 681.962 168.033 676.594 169.072C670.957 170.163 665.921 172.141 660.584 173.398C658.666 171.743 656.596 169.875 654.625 168.319C650.457 164.486 649.852 164.11 648.544 158.527C646.474 151.288 643.672 144.832 636.547 141.03C631.73 138.417 626.056 137.879 620.834 139.539C608.34 143.608 602.422 156.22 600.931 168.308Z"/><path fill="#424D63" stroke="none" d="M731.438 522.647C737.005 527.539 741.045 531.27 745.907 536.981C752.358 544.483 758.062 552.72 765.493 559.3C774.487 567.265 785.481 572.947 795.062 579.988C814.009 593.912 816.942 616.736 818.79 638.45C820.422 653.123 823.356 668.434 821.362 683.201C820.666 688.351 815.24 694.318 813.702 699.015C807.897 716.731 809.373 720.9 790.196 726.818C792.254 729.525 790.541 729.297 791.551 731.564L790.792 731.88C779.514 736.494 773.355 734.289 765.908 743.196C765.163 741.443 764.566 739.631 764.123 737.779L764.476 736.826C762.451 736.636 759.475 737.836 757.415 738.496C751.521 741.276 735.24 749.159 730.019 738.139C728.012 733.904 724.422 727.042 723.144 723.534C722.407 721.566 722.054 719.474 722.106 717.372C722.582 701.452 753.967 695.064 754.742 675.338L754.767 674.523C754.682 668.512 754.546 662.501 754.358 656.492L750.719 662.255C746.34 670.628 739.168 685.906 729.618 686.611C699.873 688.808 719.69 658.153 723.165 646.603C727.54 632.067 728.451 625.309 736.961 614.822C721.082 602.78 709.778 597.532 690.715 591.947C692.185 590.78 694.339 589.624 694.464 587.733C693.32 587.153 690.751 586.334 689.426 585.871L693.491 579.97C708.237 558.984 719.445 545.545 731.438 522.647Z"/><path d="M759.754 680.163C759.722 680.528 759.69 680.893 759.658 681.257C760.767 693.616 709.637 717.07 733.265 725.659C737.813 727.313 760.526 714.745 763.875 709.868C769.494 704.127 775.991 698.537 780.006 691.847C783.793 685.538 784.58 658.911 789.627 656.399C791.311 656.615 790.596 656.237 791.901 657.324C792.004 658.753 786.724 689.954 785.588 692.511C780.521 703.908 757.963 724.628 744.817 728.208C741.142 729.209 735.133 729.912 734.217 733.146C735.805 743.57 750.225 736.035 755.363 733.735L755.325 737.25C756.174 737.902 756.727 737.991 757.415 738.496C751.521 741.276 735.24 749.159 730.019 738.139C728.012 733.904 724.422 727.042 723.144 723.534C722.407 721.566 722.054 719.474 722.106 717.372C722.582 701.452 753.967 695.064 754.742 675.338L754.767 674.523C756.185 672.104 753.486 660.153 759.284 662.868C760.102 666.777 759.152 675.076 759.754 680.163Z"/><path d="M694.464 587.733C711.018 592.993 727.41 598.526 740.208 610.819C745.324 605.942 755.809 593.482 761.696 592.61C763.744 593.202 762.989 592.628 764.157 594.225C763.769 596.649 757.94 600.575 756.114 602.277C741.069 616.3 732.561 627.442 728.392 647.816C726.956 654.835 719.661 666.334 718.724 674.246C717.655 683.166 729.134 683.377 734.537 677.515C740.622 670.913 742.029 666.726 745.544 658.999C747.273 660.418 748.561 661.769 750.719 662.255C746.34 670.628 739.168 685.906 729.618 686.611C699.873 688.808 719.69 658.153 723.165 646.603C727.54 632.067 728.451 625.309 736.961 614.822C721.082 602.78 709.778 597.532 690.715 591.947C692.185 590.78 694.339 589.624 694.464 587.733Z"/><path fill="#FFFFFF" d="M755.363 733.735C766.412 726.929 771.49 730.348 783.457 719.515C785.943 719.738 786.637 719.632 788.119 721.934C785.956 724.36 783.742 726.74 781.479 729.073L790.196 726.818C792.254 729.525 790.541 729.297 791.551 731.564L790.792 731.88C779.514 736.494 773.355 734.289 765.908 743.196C765.163 741.443 764.566 739.631 764.123 737.779L764.476 736.826C762.451 736.636 759.475 737.836 757.415 738.496C756.727 737.991 756.174 737.902 755.325 737.25L755.363 733.735Z"/><path d="M783.457 719.515C785.631 717.365 791.849 711.674 793.306 709.363C798.572 701.014 801.326 690.02 804.7 680.748C805.868 677.534 805.927 674.256 809.967 675.055C810.963 676.682 811.001 677.691 810.451 679.561C804.812 698.734 802.548 708.402 788.119 721.934C786.637 719.632 785.943 719.738 783.457 719.515Z"/><path fill="#FFFFFF" d="M745.544 658.999C749.881 650.857 751.774 648.732 753.516 639.505L754.297 640.533C755.959 640.739 757.54 640.774 758.994 641.545L757.206 650.16C760.996 657.73 761.239 672.412 759.754 680.163C759.152 675.076 760.102 666.777 759.284 662.868C753.486 660.153 756.185 672.104 754.767 674.523C754.682 668.512 754.546 662.501 754.358 656.492L750.719 662.255C748.561 661.769 747.273 660.418 745.544 658.999Z"/><path d="M753.516 639.505C753.862 637.365 753.817 636.103 755.254 634.509C757.07 633.666 756.18 633.699 758.008 634.309C760.334 637.033 759.655 638.231 758.994 641.545C757.54 640.774 755.959 640.739 754.297 640.533L753.516 639.505Z"/><path fill="#FFFFFF" d="M648.544 158.527C649.852 164.11 650.457 164.486 654.625 168.319C653.041 169.862 652.938 171.945 652.526 174.053C650.225 174.043 648.005 170.161 644.977 169.611C643.915 170.763 644.05 172.383 643.761 174.293C643.316 170.828 643.804 164.204 643.571 159.795C646.185 160.155 646.755 160.539 648.544 158.527Z"/><path fill="#424D63" stroke="none" d="M499.44 747.948C503.883 747.453 508.363 746.889 512.826 746.709L503.353 756.057C503.832 753.709 504.426 751.724 503.643 749.546C501.898 747.871 502.341 748.397 499.44 747.948Z"/><path fill="#424D63" stroke="none" d="M666.131 177.827C677.262 172.774 686.424 173.555 697.07 170.203C703.86 168.064 706.128 158.493 717.25 166.127C724.277 170.95 733.313 173.202 741.76 173.113C744.029 173.088 747.733 173.518 749.988 174.06C754.76 176.176 760.009 179.767 764.961 181.628C771.543 184.101 777.62 184.673 784.244 187.589C775.409 197.459 776.094 201.811 774.857 214.559C764.16 218.079 762.641 218.675 753.19 225.425C749.54 224.522 745.878 223.667 742.205 222.86C742.479 218.131 743.041 212.227 741.274 207.84C735.102 192.511 718.993 192.003 705.961 197.348C701.805 200.015 699.989 201.464 696.353 204.879C693.309 202.752 688.181 197.769 685.26 195.124L666.131 177.827Z"/><path fill="#424D63" stroke="none" d="M705.961 197.348C706.794 198.515 708.292 200.886 709.338 201.58C727.715 193.86 743.571 207.495 735.415 225.33C732.344 231.972 726.654 237.04 719.702 239.326C715.072 240.878 709.35 240.874 704.942 238.652C700.982 236.677 698.006 233.164 696.709 228.934C694.887 222.882 696.553 215.911 699.372 210.425C698.231 208.497 697.361 206.881 696.353 204.879C699.989 201.464 701.805 200.015 705.961 197.348Z"/><path fill="#FFFFFF" d="M705.961 197.348C706.794 198.515 708.292 200.886 709.338 201.58C705.523 204.446 702.397 206.659 699.372 210.425C698.231 208.497 697.361 206.881 696.353 204.879C699.989 201.464 701.805 200.015 705.961 197.348Z"/><path fill="#424D63" stroke="none" d="M682.862 366.413C690.099 369.459 698.001 371.574 704.864 375.299C715.044 380.824 710.772 388.223 706.68 396.122C703.875 401.537 701.328 406.082 697.942 411.132C695.28 415.924 693.133 419.749 690.08 424.336C686.965 411.61 681.38 397.94 681.317 384.891C681.293 379.698 682.298 371.757 682.862 366.413Z"/><path fill="#424D63" stroke="none" d="M771.036 221.515C793.746 219.609 784.673 249.604 764.494 257.271C747.468 261.327 749.079 245.168 754.246 234.847C758.018 227.31 763.353 223.995 771.036 221.515Z"/><path fill="#424D63" stroke="none" d="M626.458 336.87C632.289 339.107 635.599 341.137 642.163 343.287C638.218 346.66 634.789 349.211 630.622 352.268C617.022 360.724 612.265 348.472 626.458 336.87Z"/><path fill="#424D63" stroke="none" d="M648.824 345.532C649.894 345.692 655.153 347.534 656.498 347.979C651.569 351.937 647.986 354.978 642.236 357.6C639.777 357.837 637.172 358.517 635.314 356.77C636.118 353.562 645.696 347.715 648.824 345.532Z"/><path fill="#424D63" stroke="none" d="M659.335 350.187C660.537 350.071 661.723 350.361 662.954 350.548L663.343 351.366C661.662 353.261 659.858 353.741 657.496 354.734C656.105 355.365 656.074 355.273 654.519 355.361L654.315 354.701C656.105 352.119 656.622 351.968 659.335 350.187Z"/><path fill="#424D63" stroke="none" d="M480.261 576.413C487.546 575.518 497.054 575.766 504.701 575.029C528.681 572.718 563.304 569.262 587.122 572.807C591.967 576.292 596.24 581.208 601.09 584.508C625.087 600.834 654.473 619.802 679.994 595.907L685.987 590.289L690.715 591.947C709.778 597.532 721.082 602.78 736.961 614.822C728.451 625.309 727.54 632.067 723.165 646.603C719.69 658.153 699.873 688.808 729.618 686.611C739.168 685.906 746.34 670.628 750.719 662.255L754.358 656.492C754.546 662.501 754.682 668.512 754.767 674.523L754.742 675.338C753.967 695.064 722.582 701.452 722.106 717.372C722.054 719.474 722.407 721.566 723.144 723.534C724.422 727.042 728.012 733.904 730.019 738.139C735.24 749.159 751.521 741.276 757.415 738.496C759.475 737.836 762.451 736.636 764.476 736.826L764.123 737.779C764.566 739.631 765.163 741.443 765.908 743.196C745.575 767.889 728.66 792.945 707.717 816.751C701.377 823.957 694.192 830.016 687.145 836.52C679.752 843.449 672.419 850.443 665.148 857.5C644.088 877.85 624.523 900.781 608.859 925.546C603.923 933.361 592.699 948.537 594.85 958.129C600.446 983.044 602.372 1016.83 624.966 1033.12C635.781 1040.92 644.017 1049.68 645.711 1063.34C646.921 1073.1 640.69 1092.86 628.62 1093.19C615.423 1093.55 607.152 1088.18 596.336 1081.75C592.201 1079.45 585.505 1077.36 580.251 1074.51C577.691 1073.55 575.011 1072.48 572.432 1071.61C574.395 1074.11 577.74 1078.1 579.45 1080.59C577.663 1082.48 577.62 1082.51 576.354 1084.77C568.91 1076.53 560.56 1070.28 553.532 1062.57C555.031 1059.66 554.566 1059.95 557.123 1058.64C546.302 1048.23 536.415 1022.11 530.459 1007.85C529.27 1008.08 526.061 1008.63 525.065 1008.95C522.254 1001.42 521.491 996.224 521.41 988.279C522.906 988.181 523.5 987.885 524.935 987.446C526.327 986.219 526.307 984.683 526.657 982.763C530.265 933.935 564.793 900.254 590.013 860.891C603.969 839.108 617.405 817.592 630.733 795.421C636.085 786.517 644.396 777.663 650.699 769.184C663.38 752.128 668.342 732.969 672.871 712.606C677.154 711.26 693.369 705.45 693.708 700.82C690.029 698.62 677.905 705.175 674.002 707.006C676.09 688.097 677.06 671.022 665.38 654.877C647.679 630.41 617.017 624.161 589.843 616.414C574.273 611.974 559.065 606.925 543.419 602.85C521.803 597.333 499.973 592.688 477.983 588.927C478.313 584.286 479.025 580.854 480.261 576.413Z"/><path d="M764.123 737.779C764.566 739.631 765.163 741.443 765.908 743.196C745.575 767.889 728.66 792.945 707.717 816.751C701.377 823.957 694.192 830.016 687.145 836.52C679.752 843.449 672.419 850.443 665.148 857.5C644.088 877.85 624.523 900.781 608.859 925.546C603.923 933.361 592.699 948.537 594.85 958.129C600.446 983.044 602.372 1016.83 624.966 1033.12C635.781 1040.92 644.017 1049.68 645.711 1063.34C646.921 1073.1 640.69 1092.86 628.62 1093.19C615.423 1093.55 607.152 1088.18 596.336 1081.75C592.201 1079.45 585.505 1077.36 580.251 1074.51C581.221 1074.13 582.199 1073.77 583.183 1073.43C583.102 1072.36 583.216 1071.32 583.333 1070.25C587.722 1071.85 595.728 1075.01 599.74 1077.02C608.648 1081.72 613.896 1087.36 624.613 1087.84C636.974 1088.39 639.229 1076.38 640.32 1066.61C640.762 1062.65 639.038 1059.44 637.927 1055.96C633.966 1043.54 623.085 1040.18 614.838 1031.65C600.265 1015.05 596.928 994.418 592.241 974.107C586.56 949.488 588.868 947.417 601.774 926.41C619.057 898.278 639.887 874.697 663.385 851.661C679.196 836.161 696.365 822.048 710.587 805.07C720.106 793.7 728.743 782.276 737.495 770.349C744.05 761.415 756.241 744.906 764.123 737.779Z"/><path fill="#FFFFFF" d="M559.9 1057.99C561.318 1057.4 562.118 1056.67 563.324 1055.74L565.127 1056.16C571.528 1063.04 574.787 1066.18 583.333 1070.25C583.216 1071.32 583.102 1072.36 583.183 1073.43C582.199 1073.77 581.221 1074.13 580.251 1074.51C577.691 1073.55 575.011 1072.48 572.432 1071.61C574.395 1074.11 577.74 1078.1 579.45 1080.59C577.663 1082.48 577.62 1082.51 576.354 1084.77C568.91 1076.53 560.56 1070.28 553.532 1062.57C555.031 1059.66 554.566 1059.95 557.123 1058.64L563.078 1063.48L559.9 1057.99Z"/><path fill="#424D63" stroke="none" d="M530.459 1007.85L531.254 1007.39L533.118 1008.99C539.592 1016.18 545.376 1024.21 549.171 1033.17C552.891 1041.96 554.958 1049.47 559.9 1057.99L563.078 1063.48L557.123 1058.64C546.302 1048.23 536.415 1022.11 530.459 1007.85Z"/><path d="M539.879 1007.8C554.226 1024.33 555.184 1038.77 565.127 1056.16L563.324 1055.74C562.118 1056.67 561.318 1057.4 559.9 1057.99C554.958 1049.47 552.891 1041.96 549.171 1033.17C545.376 1024.21 539.592 1016.18 533.118 1008.99C535.111 1008.08 537.646 1008.02 539.879 1007.8Z"/><path fill="#FFFFFF" d="M526.657 982.763C526.71 986.245 526.655 990.706 526.889 994.1C530.263 998.426 535.896 1003.78 539.879 1007.8C537.646 1008.02 535.111 1008.08 533.118 1008.99L531.254 1007.39L530.459 1007.85C529.27 1008.08 526.061 1008.63 525.065 1008.95C522.254 1001.42 521.491 996.224 521.41 988.279C522.906 988.181 523.5 987.885 524.935 987.446C526.327 986.219 526.307 984.683 526.657 982.763Z"/><path d="M514.262 498.601C507.054 489.665 501.28 482.241 494.853 472.764C488.4 463.249 481.05 449.864 473.999 441.137C463.013 428.156 450.408 415.837 439.333 402.993C434.86 397.806 414.465 363.733 415.953 359.065L417.644 358.593C419.146 359.024 420.061 359.236 420.944 360.701C427.4 371.423 432.001 383.544 439.258 393.806C450.247 409.583 465.836 422.009 477.611 437.093C485.302 446.944 492.206 458.829 499.069 469.326C505.88 479.566 513.221 489.443 521.061 498.917C529.55 509.176 540.083 516.732 549.298 526.224C574.557 552.241 635.736 626.646 675.748 592.982C677.982 594.125 678.174 594.222 679.994 595.907C654.473 619.802 625.087 600.834 601.09 584.508C596.24 581.208 591.967 576.292 587.122 572.807C563.304 569.262 528.681 572.718 504.701 575.029C497.054 575.766 487.546 575.518 480.261 576.413C479.025 580.854 478.313 584.286 477.983 588.927C499.973 592.688 521.803 597.333 543.419 602.85C559.065 606.925 574.273 611.974 589.843 616.414C617.017 624.161 647.679 630.41 665.38 654.877C677.06 671.022 676.09 688.097 674.002 707.006C677.905 705.175 690.029 698.62 693.708 700.82C693.369 705.45 677.154 711.26 672.871 712.606C668.342 732.969 663.38 752.128 650.699 769.184C644.396 777.663 636.085 786.517 630.733 795.421C617.405 817.592 603.969 839.108 590.013 860.891C564.793 900.254 530.265 933.935 526.657 982.763C526.307 984.683 526.327 986.219 524.935 987.446C523.5 987.885 522.906 988.181 521.41 988.279C521.259 935.251 560.98 896.281 588.047 854.09C601.508 833.107 613.901 811.979 627.061 790.883C631.391 783.942 639.737 774.401 645.102 767.437C657.847 750.896 664.873 727.574 668.335 707.335C670.756 689.693 671.766 672.079 660.443 657.398C641.755 633.167 610.612 628.126 582.997 619.829C566.904 614.993 549.708 609.681 533.282 605.901C517.196 602.2 500.777 598.4 484.613 595.001C454.997 590.469 424.386 589.681 394.515 591.439C379.543 592.321 364.275 594.444 349.245 594.064C347.951 594.036 347.21 593.01 346.615 592.085C346.945 591.103 347.363 590.261 348.469 589.863C352.922 588.258 362.227 588.522 367.08 588.12C394.983 585.81 422.304 583.399 450.325 585.935C457.827 586.614 464.274 586.789 471.826 588.274L472.56 583.063C473.354 577.401 476.651 572.096 478.361 566.706C478.732 565.535 479.088 560.042 479.188 558.549C474.533 561.27 459.899 570.394 455.023 566.355C454.955 565.901 454.888 565.447 454.82 564.993C461.61 560.799 475.423 556.132 480.899 550.865C492.857 539.362 497.088 528.497 504.449 514.302C507.284 508.836 510.983 503.527 514.262 498.601Z"/><path fill="#424D63" stroke="none" d="M517.686 503.889C519.183 504.654 547.233 531.545 549.778 534.427C559.899 545.886 569.966 555.979 581.198 566.592C567.993 566.305 554.784 566.326 541.58 566.655C521.315 566.912 503.956 570.456 483.073 570.564C485.371 547.821 486.349 557.039 497.212 539.943C504.822 527.968 508.099 516.246 517.686 503.889Z"/><path d="M638.731 473.173C636.212 456.848 623.707 423.293 613.085 411.028C593.438 388.341 594.462 382.182 589.32 353.004C584.089 324.104 569.372 297.773 547.497 278.175C544.398 275.367 539.01 273.26 535.115 270.071C534.671 268.102 534.671 269.098 535.396 266.997C540.676 263.568 552.775 275.991 556.462 279.515C577.018 298.786 591.301 328.576 595.33 356.479C599.344 384.284 600.687 387.583 618.707 409.814C620.682 403.93 627.574 372.463 633.016 372.634C633.118 372.81 633.244 372.974 633.322 373.162C634.986 377.183 624.87 407.78 622.938 414.951C632.102 433.842 640.631 451.749 643.845 473.002C642.136 473.018 640.414 472.963 638.731 473.173Z"/><path d="M530.459 1007.85C536.415 1022.11 546.302 1048.23 557.123 1058.64C554.566 1059.95 555.031 1059.66 553.532 1062.57C542.03 1052.3 531.578 1023.97 525.065 1008.95C526.061 1008.63 529.27 1008.08 530.459 1007.85Z"/><path d="M639.329 486.951C641.424 488.044 642.191 488.486 644.417 489.174C641.319 497.125 639.237 507.591 638.374 516.11C637.95 520.304 638.158 526.973 636.977 530.645C635.402 531.988 636.296 531.62 634.173 531.721L633.087 530.696C630.405 519.873 636.193 497.448 639.329 486.951Z"/><path fill="#FFFFFF" d="M688.221 577.919C690.494 579.023 691.085 579.329 693.491 579.97L689.426 585.871C690.751 586.334 693.32 587.153 694.464 587.733C694.339 589.624 692.185 590.78 690.715 591.947L685.987 590.289L679.994 595.907C678.174 594.222 677.982 594.125 675.748 592.982C679.526 589.051 685.071 582.247 688.221 577.919Z"/><path fill="#FFFFFF" d="M643.845 473.002L644.454 475.669L645.177 475.919L646.321 475.053L650.928 478.086C648.201 481.814 646.089 484.795 644.417 489.174C642.191 488.486 641.424 488.044 639.329 486.951C640.413 482.308 639.407 477.894 638.731 473.173C640.414 472.963 642.136 473.018 643.845 473.002Z"/><path d="M440.303 760.473C441.628 760.478 440.985 760.356 442.175 761.117L442.182 762.825C441.089 764.11 440.653 764.336 438.827 764.537C420.174 766.584 402.519 771.04 384.67 776.759C377.128 779.175 362.884 785.728 360.223 793.869C354.978 809.918 357.114 828.68 353.646 845.382C349.089 869.236 339.66 889.44 334.577 912.685C330.692 930.456 332.026 950.274 330.426 968.523C329.17 985.141 325.715 1001.7 324.879 1018.33C323.932 1037.16 337.823 1045.83 351.844 1054.41C363.719 1061.66 378.127 1071.05 384.675 1083.62C391.213 1096.17 390.336 1112.36 393.416 1126C394.28 1129.79 397.385 1134.69 398.575 1138.55C399.248 1140.64 398.742 1140.81 397.774 1142.51C388.881 1139.54 385.871 1109.76 384.837 1100.7C381.787 1073.98 358.868 1065.05 338.446 1051.33C306.07 1029.58 326.67 996.29 326.265 965.127C326.374 951.185 326.979 932.519 328.72 918.837C331.683 895.55 344.489 872.178 348.659 848.919C352.765 832.103 350.581 811.781 354.452 796.837C355.387 793.117 357.093 789.636 359.46 786.619C368.722 774.968 394.418 769.615 408.601 765.236C417.24 762.568 431.025 761.395 440.303 760.473Z"/><path fill="#424D63" stroke="none" d="M252.414 313.371C256.233 314.327 267.199 321.916 271.007 324.519C272.523 325.556 272.345 327.041 272.487 328.65C268.705 325.878 253.106 316.772 252.414 313.371Z"/><path fill="#424D63" stroke="none" d="M839.702 45.9287C842.76 47.7762 845.848 53.5872 848.72 56.0977C850.573 57.7169 852.255 58.578 854.276 60.3269L854.196 61.4351C848.981 59.9104 841.369 52.4422 839.023 47.7058L839.702 45.9287Z"/><path fill="#424D63" stroke="none" d="M117.54 759.399L118.653 759.599C118.313 760.139 100.242 764.01 97.2358 764.861L95.9155 764.625L96.2473 763.78C102.606 760.838 110.597 759.681 117.54 759.399Z"/><path fill="#424D63" stroke="none" d="M860.548 235.215C866.378 236.193 870.605 239.859 873.122 245.199C869.896 245.967 863.182 237.868 860.548 235.215Z"/><path fill="#424D63" stroke="none" d="M803.756 462.346C805.364 463.701 811.764 484.235 812.733 487.672C809.56 484.875 804.472 467.127 803.756 462.346Z"/><path fill="#424D63" stroke="none" d="M1161.65 18.2059C1164.97 20.5147 1167.75 23.7604 1165.78 27.7486C1163.67 25.7805 1161.86 24.3673 1160.4 21.8859C1160.18 19.5732 1160.04 20.4856 1161.65 18.2059Z"/><path fill="#424D63" stroke="none" d="M268.025 3.82027C271.516 4.65352 275.684 6.92714 276.582 10.5877C272.593 10.2949 268.764 7.90622 268.025 3.82027Z"/><path fill="#424D63" stroke="none" d="M57.8462 907.809C61.4303 908.525 62.9547 909.679 63.1859 913.377C60.711 913.819 61.0416 914.139 58.9971 913.411C57.8786 911.939 57.9862 909.751 57.8462 907.809Z"/><path fill="#424D63" stroke="none" d="M52.445 485.513C55.677 486.476 59.5833 488.323 59.8292 492.013C56.4529 491.176 53.3158 489.031 52.445 485.513Z"/><path fill="#424D63" stroke="none" d="M64.7442 954.858L65.8225 955.189L65.6855 955.818C62.8423 957.883 60.4999 959.273 57.4889 961.067L56.7488 961.144L56.1287 960.597C57.4425 958.011 62.0662 956.075 64.7442 954.858Z"/><path fill="#424D63" stroke="none" d="M859.644 763.365C862.968 763.383 870.268 763.049 872.852 764.569C869.224 765.136 861.997 766.224 859.644 763.365Z"/><path fill="#424D63" stroke="none" d="M21.9597 991.182C23.8399 992.546 23.133 991.688 24.0495 993.935C23.8056 996.28 23.7757 996.158 22.3979 998.131C18.9607 996.319 20.3855 993.787 21.9597 991.182Z"/><path fill="#424D63" stroke="none" d="M895.026 46.4759C897.937 47.1388 899.862 47.3116 900.045 50.575C898.096 50.8669 897.428 51.126 895.545 50.4888C894.556 48.5822 894.903 48.9612 895.026 46.4759Z"/><path fill="#424D63" stroke="none" d="M36.213 17.1375C38.9201 18.6334 40.8991 22.4255 42.6122 25.1325C38.5889 24.1302 37.1413 20.8864 36.213 17.1375Z"/><path fill="#424D63" stroke="none" d="M919.869 251.14L921.09 252.105C922.001 255.333 922.145 259.848 921.969 263.164C920.39 260.834 920.15 254.146 919.869 251.14Z"/><path fill="#424D63" stroke="none" d="M977.86 948.004C981.48 948.482 984.354 950.896 986.879 953.398C982.879 953.089 980.352 950.827 977.86 948.004Z"/><path fill="#424D63" stroke="none" d="M46.405 928.387C48.3469 928.309 50.0871 928.212 51.5949 929.484L51.4394 930.249L50.3157 930.809C48.1586 930.852 47.4327 930.874 45.3226 930.553L45.0748 929.685L46.405 928.387Z"/><path fill="#424D63" stroke="none" d="M10.3875 83.0145C12.0839 85.5143 12.3265 88.8887 10.7257 91.4953C8.60825 88.5115 9.48475 86.4113 10.3875 83.0145Z"/><path fill="#424D63" stroke="none" d="M833.592 1023.94C835.182 1024.76 834.506 1024.2 835.535 1025.86C835.64 1027.86 835.293 1028.23 834.398 1029.99L832.881 1028.95C832.345 1026.49 832.737 1026.73 833.592 1023.94Z"/><path fill="#424D63" stroke="none" d="M268.768 111.683L269.606 111.46C272.713 112.874 274.681 113.614 277.447 115.663C274.975 115.315 269.572 114.204 268.768 111.683Z"/><path fill="#424D63" stroke="none" d="M813.424 821.683C814.647 822.394 814.54 822.506 815.191 823.808C815.302 825.796 815.093 825.873 814.221 827.626C813.466 827.296 813.174 827.042 812.486 826.584C812.011 824.156 812.402 824.434 813.424 821.683Z"/><path fill="#424D63" stroke="none" d="M1156.41 657.765C1157.86 658.874 1159.2 664.776 1159.79 666.842C1156.64 665.116 1156.68 660.991 1156.41 657.765Z"/><path fill="#424D63" stroke="none" d="M737.84 1080.24L738.522 1080.86C738.68 1082.91 738.019 1085.56 737.624 1087.64C735.495 1085.01 736.458 1082.84 737.84 1080.24Z"/><path fill="#424D63" stroke="none" d="M101.767 1080.01C101.78 1080.88 101.678 1080.72 101.205 1081.63C99.1891 1083.08 97.2913 1083.29 94.85 1083.85L94.8193 1083.66C95.7126 1082.1 99.8392 1080.8 101.767 1080.01Z"/><path fill="#424D63" stroke="none" d="M230.851 135.526C234.414 135.003 235.633 134.988 239.02 136.196C235.467 136.726 234.236 136.549 230.851 135.526Z"/><path fill="#424D63" stroke="none" d="M238.672 307.132C241.787 306.708 243.105 307.369 245.886 308.602C242.636 308.919 241.543 308.616 238.672 307.132Z"/></g></svg>